<mxfile host="app.diagrams.net" modified="2023-08-07T16:40:20.359Z" agent="Mozilla/5.0 (Macintosh; Intel Mac OS X 10_15_7) AppleWebKit/537.36 (KHTML, like Gecko) Chrome/115.0.0.0 Safari/537.36" etag="pa0TIaanVKJJ-TCk4lxT" version="21.6.5" type="github">
  <diagram name="PÃ¡gina-1" id="UNy4F-vHESfdIuXOVOGJ">
    <mxGraphModel dx="1781" dy="609" grid="1" gridSize="10" guides="1" tooltips="1" connect="1" arrows="1" fold="1" page="1" pageScale="1" pageWidth="827" pageHeight="1169" math="0" shadow="0">
      <root>
        <mxCell id="0" />
        <mxCell id="1" parent="0" />
        <mxCell id="hL7jwnRb5231ex0UvQOb-1" value="CQRS - Command Query Responsibility&lt;span style=&quot;background-color: initial;&quot;&gt;&amp;nbsp;Segregation&amp;nbsp;&lt;/span&gt;" style="text;html=1;strokeColor=none;fillColor=none;align=center;verticalAlign=middle;whiteSpace=wrap;rounded=0;" vertex="1" parent="1">
          <mxGeometry x="34" y="90" width="760" height="30" as="geometry" />
        </mxCell>
        <mxCell id="hL7jwnRb5231ex0UvQOb-9" style="edgeStyle=orthogonalEdgeStyle;rounded=0;orthogonalLoop=1;jettySize=auto;html=1;" edge="1" parent="1" source="hL7jwnRb5231ex0UvQOb-2" target="hL7jwnRb5231ex0UvQOb-5">
          <mxGeometry relative="1" as="geometry" />
        </mxCell>
        <mxCell id="hL7jwnRb5231ex0UvQOb-10" style="edgeStyle=orthogonalEdgeStyle;rounded=0;orthogonalLoop=1;jettySize=auto;html=1;entryX=0.5;entryY=0;entryDx=0;entryDy=0;" edge="1" parent="1" source="hL7jwnRb5231ex0UvQOb-2" target="hL7jwnRb5231ex0UvQOb-6">
          <mxGeometry relative="1" as="geometry" />
        </mxCell>
        <mxCell id="hL7jwnRb5231ex0UvQOb-2" value="Client" style="rounded=1;whiteSpace=wrap;html=1;fillColor=#e1d5e7;strokeColor=#9673a6;" vertex="1" parent="1">
          <mxGeometry x="180" y="140" width="420" height="60" as="geometry" />
        </mxCell>
        <mxCell id="hL7jwnRb5231ex0UvQOb-3" value="DB" style="shape=cylinder3;whiteSpace=wrap;html=1;boundedLbl=1;backgroundOutline=1;size=15;fillColor=#fff2cc;strokeColor=#d6b656;" vertex="1" parent="1">
          <mxGeometry x="354" y="400" width="60" height="80" as="geometry" />
        </mxCell>
        <mxCell id="hL7jwnRb5231ex0UvQOb-7" style="edgeStyle=orthogonalEdgeStyle;rounded=0;orthogonalLoop=1;jettySize=auto;html=1;entryX=0;entryY=0;entryDx=0;entryDy=52.5;entryPerimeter=0;" edge="1" parent="1" source="hL7jwnRb5231ex0UvQOb-5" target="hL7jwnRb5231ex0UvQOb-3">
          <mxGeometry relative="1" as="geometry">
            <Array as="points">
              <mxPoint x="230" y="453" />
            </Array>
          </mxGeometry>
        </mxCell>
        <mxCell id="hL7jwnRb5231ex0UvQOb-12" value="Change Data" style="edgeLabel;html=1;align=center;verticalAlign=middle;resizable=0;points=[];" vertex="1" connectable="0" parent="hL7jwnRb5231ex0UvQOb-7">
          <mxGeometry x="-0.6511" relative="1" as="geometry">
            <mxPoint as="offset" />
          </mxGeometry>
        </mxCell>
        <mxCell id="hL7jwnRb5231ex0UvQOb-5" value="Command" style="rounded=1;whiteSpace=wrap;html=1;fillColor=#dae8fc;strokeColor=#6c8ebf;" vertex="1" parent="1">
          <mxGeometry x="180" y="270" width="120" height="60" as="geometry" />
        </mxCell>
        <mxCell id="hL7jwnRb5231ex0UvQOb-8" style="edgeStyle=orthogonalEdgeStyle;rounded=0;orthogonalLoop=1;jettySize=auto;html=1;entryX=1;entryY=0;entryDx=0;entryDy=52.5;entryPerimeter=0;" edge="1" parent="1" source="hL7jwnRb5231ex0UvQOb-6" target="hL7jwnRb5231ex0UvQOb-3">
          <mxGeometry relative="1" as="geometry">
            <Array as="points">
              <mxPoint x="540" y="453" />
            </Array>
          </mxGeometry>
        </mxCell>
        <mxCell id="hL7jwnRb5231ex0UvQOb-13" value="Consult Data" style="edgeLabel;html=1;align=center;verticalAlign=middle;resizable=0;points=[];" vertex="1" connectable="0" parent="hL7jwnRb5231ex0UvQOb-8">
          <mxGeometry x="-0.6056" y="-1" relative="1" as="geometry">
            <mxPoint as="offset" />
          </mxGeometry>
        </mxCell>
        <mxCell id="hL7jwnRb5231ex0UvQOb-6" value="Query" style="rounded=1;whiteSpace=wrap;html=1;fillColor=#d5e8d4;strokeColor=#82b366;" vertex="1" parent="1">
          <mxGeometry x="480" y="270" width="120" height="60" as="geometry" />
        </mxCell>
        <mxCell id="hL7jwnRb5231ex0UvQOb-11" value="&lt;h1&gt;Single Database&lt;/h1&gt;&lt;div&gt;&lt;span style=&quot;white-space: pre;&quot;&gt;&#x9;&lt;/span&gt;&lt;span style=&quot;white-space: pre;&quot;&gt;&#x9;&lt;/span&gt;All Persistence&lt;/div&gt;" style="text;html=1;strokeColor=#d6b656;fillColor=#fff2cc;spacing=5;spacingTop=-20;whiteSpace=wrap;overflow=hidden;rounded=0;" vertex="1" parent="1">
          <mxGeometry x="290" y="500" width="200" height="70" as="geometry" />
        </mxCell>
        <mxCell id="hL7jwnRb5231ex0UvQOb-14" value="&lt;h1&gt;Command Write&lt;/h1&gt;&lt;div&gt;Create, Update and Delete a record, but&amp;nbsp;does not return any results.&amp;nbsp;&amp;nbsp;&lt;/div&gt;" style="text;html=1;strokeColor=none;fillColor=none;spacing=5;spacingTop=-20;whiteSpace=wrap;overflow=hidden;rounded=0;" vertex="1" parent="1">
          <mxGeometry x="-50" y="250" width="220" height="100" as="geometry" />
        </mxCell>
        <mxCell id="hL7jwnRb5231ex0UvQOb-15" value="&lt;h1&gt;Query Read&lt;/h1&gt;&lt;div&gt;Read a record, but&amp;nbsp;does not return any results.&amp;nbsp;&lt;/div&gt;" style="text;html=1;strokeColor=none;fillColor=none;spacing=5;spacingTop=-20;whiteSpace=wrap;overflow=hidden;rounded=0;" vertex="1" parent="1">
          <mxGeometry x="630" y="240" width="150" height="100" as="geometry" />
        </mxCell>
      </root>
    </mxGraphModel>
  </diagram>
</mxfile>
